<?xml version="1.0" encoding="UTF-8" standalone="no"?> <!-- Created with Vectornator for iOS (http://vectornator.io/) --><!DOCTYPE svg PUBLIC "-//W3C//DTD SVG 1.1//EN" "http://www.w3.org/Graphics/SVG/1.1/DTD/svg11.dtd">
<svg height="100%" style="fill-rule:evenodd;clip-rule:evenodd;stroke-linecap:round;stroke-linejoin:round;" xmlns:xlink="http://www.w3.org/1999/xlink" xmlns="http://www.w3.org/2000/svg" xml:space="preserve" width="100%" xmlns:vectornator="http://vectornator.io" version="1.1" viewBox="0 0 104.895 73.71">
<metadata>
<vectornator:setting key="DimensionsVisible" value="1"/>
<vectornator:setting key="SnapToGrid" value="0"/>
<vectornator:setting key="SnapToPoints" value="0"/>
<vectornator:setting key="GuidesVisible" value="1"/>
<vectornator:setting key="RulersVisible" value="1"/>
<vectornator:setting key="SnapToEdges" value="1"/>
<vectornator:setting key="DisplayWhiteBackground" value="0"/>
<vectornator:setting key="SnapToGuides" value="1"/>
<vectornator:setting key="GridSpacing" value="45"/>
<vectornator:setting key="Units" value="Millimeters"/>
<vectornator:setting key="DynamicGuides" value="1"/>
<vectornator:setting key="New" value="1"/>
</metadata>
<defs/>
<g id="Layer 1" vectornator:layerName="Layer 1">
<path stroke="#000000" stroke-width="2.05" d="M37.2593+28.6822C37.2593+22.5446+42.2347+17.5692+48.3723+17.5692C54.5098+17.5692+59.4852+22.5446+59.4852+28.6822C59.4852+34.8197+54.5098+39.7952+48.3723+39.7952C42.2347+39.7952+37.2593+34.8197+37.2593+28.6822Z" fill="#d1d1d1" stroke-linecap="round" opacity="1" stroke-linejoin="round"/>
<path stroke="#000000" stroke-width="2.05" d="M46.5102+66.1888L35.6561+47.389C34.6277+45.6077+35.4614+44.1638+37.5182+44.1638L59.2263+44.1638C61.2831+44.1638+62.1168+45.6077+61.0884+47.389L50.2343+66.1888C49.2059+67.97+47.5386+67.97+46.5102+66.1888Z" fill="#d1d1d1" stroke-linecap="round" opacity="1" stroke-linejoin="round"/>
<path stroke="#000000" stroke-width="2.05" d="M32.5866+32.0277C32.5866+25.8902+37.5621+20.9147+43.6996+20.9147C49.8371+20.9147+54.8126+25.8902+54.8126+32.0277C54.8126+38.1653+49.8371+43.1407+43.6996+43.1407C37.5621+43.1407+32.5866+38.1653+32.5866+32.0277Z" fill="none" stroke-linecap="round" opacity="1" stroke-linejoin="round"/>
<path stroke="#000000" stroke-width="2.05" d="M41.8376+69.5343L30.9835+50.7345C29.9551+48.9533+30.7888+47.5093+32.8455+47.5093L54.5537+47.5093C56.6105+47.5093+57.4441+48.9533+56.4157+50.7345L45.5617+69.5343C44.5333+71.3155+42.8659+71.3155+41.8376+69.5343Z" fill="none" stroke-linecap="round" opacity="1" stroke-linejoin="round"/>
</g>
</svg>
